<?xml version="1.0" encoding="UTF-8"?>
<!-- Generator: visioncortex VTracer 0.6.4 -->
<svg version="1.1" xmlns="http://www.w3.org/2000/svg" width="1184" height="864">
<path d="M0 0 C12.27583834 10.3769196 18.33259072 23.94894109 24.04046631 38.57800293 C25.62964114 42.64733718 27.25624342 46.70174206 28.87890625 50.7578125 C29.21543213 51.60110107 29.55195801 52.44438965 29.89868164 53.31323242 C33.58415522 62.51859801 37.47248962 71.63504333 41.375 80.75 C47.39063647 94.82223059 53.32897917 108.92409583 59.1875 123.0625 C59.53971619 123.91154907 59.89193237 124.76059814 60.25482178 125.63537598 C61.90443225 129.61342021 63.5487866 133.59345968 65.18115234 137.57861328 C66.38525328 140.51819976 67.6113381 143.44712753 68.85400391 146.37060547 C69.41982388 147.72483985 69.98542802 149.07916445 70.55078125 150.43359375 C71.29775269 152.1959436 71.29775269 152.1959436 72.05981445 153.99389648 C73 157 73 157 73.03295898 159.18652344 C71.35885358 162.12560519 68.8903396 163.04522113 65.921875 164.58203125 C65.29104004 164.91341599 64.66020508 165.24480072 64.01025391 165.58622742 C61.93007964 166.67484331 59.84043625 167.74374119 57.75 168.8125 C56.30832726 169.56136139 54.86725205 170.31137416 53.42675781 171.0625 C50.44851809 172.61256712 47.46621727 174.15438944 44.48046875 175.68994141 C40.16341522 177.91169987 35.86187002 180.16223415 31.5625 182.41796875 C29.59049608 183.4496231 27.61800473 184.48033522 25.6451416 185.51034546 C24.38682974 186.16744361 23.12893193 186.8253353 21.87145996 187.48403931 C20.11973248 188.40002318 18.3646275 189.30953919 16.609375 190.21875 C15.1238916 190.9912207 15.1238916 190.9912207 13.60839844 191.77929688 C11.37501987 192.82449463 9.40780771 193.52385567 7 194 C-8.47714156 156.5719125 -22.81793005 118.69639213 -37.24208069 80.85372925 C-42.66496653 66.62869862 -48.09872812 52.4079306 -53.59869385 38.2124939 C-55.15378747 34.19747336 -56.69590757 30.17788414 -58.2250824 26.15292358 C-59.3263254 23.26427427 -60.44570826 20.38266635 -61.5625 17.5 C-61.93205811 16.51467285 -62.30161621 15.5293457 -62.68237305 14.51416016 C-65.45899207 7.43248474 -68.65843989 1.91830303 -75.375 -1.9375 C-76.24125 -2.288125 -77.1075 -2.63875 -78 -3 C-59.49500668 -23.60982668 -18.8281158 -14.80752857 0 0 Z " fill="#01B6EF" transform="translate(613,156)"/>
<path d="M0 0 C5.0931326 0.12126506 7.70871553 1.97605272 11.3550415 5.2237854 C13.98904211 8.06796071 15.09034749 11.09653181 16.3046875 14.73046875 C16.88673998 16.33937588 17.46981113 17.94791472 18.05371094 19.55615234 C18.36256226 20.42753845 18.67141357 21.29892456 18.98962402 22.19671631 C20.86189138 27.39131384 22.88660723 32.52785509 24.8828125 37.67578125 C25.74947975 39.9274336 26.61535591 42.17939059 27.48046875 44.43164062 C27.91536621 45.5631958 28.35026367 46.69475098 28.79833984 47.8605957 C29.45503662 49.56928833 29.45503662 49.56928833 30.125 51.3125 C31.45045815 54.76019134 32.77600173 58.20784923 34.10223389 61.65524292 C34.94600626 63.8513796 35.78789066 66.04824272 36.62774658 68.24588013 C38.29780602 72.61130703 39.96946292 76.97090269 41.76464844 81.28662109 C42.23161133 82.42309082 42.69857422 83.55956055 43.1796875 84.73046875 C43.56624512 85.63563232 43.95280273 86.5407959 44.35107422 87.47338867 C45.81406439 93.16958327 43.28190279 98.19686083 41.02734375 103.3671875 C40.71718323 104.09310593 40.40702271 104.81902435 40.08746338 105.56694031 C39.04366818 108.00566749 37.99051927 110.44024303 36.9375 112.875 C36.18272781 114.63376649 35.42859581 116.39280783 34.67504883 118.15209961 C33.02070903 122.01133174 31.36236935 125.86881251 29.70117188 129.72509766 C26.87096453 136.296406 24.05185253 142.87244416 21.234375 149.44921875 C20.23568092 151.78027508 19.23698297 154.11132975 18.23828125 156.44238281 C17.7371582 157.61208618 17.23603516 158.78178955 16.71972656 159.98693848 C15.17450676 163.59282067 13.62839518 167.19831927 12.08203125 170.80371094 C5.67865938 185.73488019 -0.70491777 200.67427787 -7.0625 215.625 C-7.46380127 216.56850311 -7.86510254 217.51200623 -8.27856445 218.48410034 C-12.09771596 227.46359839 -15.91490489 236.44392854 -19.72851562 245.42578125 C-25.96404386 260.11048557 -32.21426238 274.78882596 -38.48608398 289.45806885 C-39.77942593 292.4839488 -41.07158822 295.51032953 -42.36342144 298.53685379 C-45.24812254 305.29402979 -48.14403415 312.04626332 -51.04989624 318.79437256 C-52.04764922 321.11502138 -53.04236727 323.43697772 -54.03384399 325.76031494 C-55.41117104 328.98588223 -56.79985728 332.2063288 -58.19140625 335.42578125 C-58.5904718 336.36709396 -58.98953735 337.30840668 -59.4006958 338.27824402 C-64.74469806 350.55373648 -71.622608 360.52354446 -84.25 365.9375 C-96.01765846 370.52937731 -109.15890877 370.46770251 -121 366 C-129.53099915 361.66220382 -136.0259448 355.19943783 -139.30078125 346.12109375 C-140.19320937 342.13757381 -140.47371135 338.3243645 -140.5625 334.25 C-140.58940918 333.54834717 -140.61631836 332.84669434 -140.64404297 332.1237793 C-140.53600058 316.63015278 -130.45742112 300.25664072 -124.375 286.375 C-123.34598869 284.01707616 -122.31751295 281.65891853 -121.28955078 279.30053711 C-119.72074854 275.70153372 -118.15162035 272.10267674 -116.58078003 268.50456238 C-111.64753155 257.20401072 -106.75679175 245.88535285 -101.875 234.5625 C-100.32062056 230.95950245 -98.76581884 227.35668723 -97.2109375 223.75390625 C-96.84499481 222.9058844 -96.47905212 222.05786255 -96.10202026 221.18414307 C-92.4048126 212.61784917 -88.69382136 204.05756567 -84.98095703 195.49804688 C-81.83956105 188.25306097 -78.7059493 181.00476237 -75.578125 173.75390625 C-67.9332389 156.03244628 -60.2803624 138.31482341 -52.5625 120.625 C-51.86572157 119.02750699 -51.16894423 117.43001349 -50.47216797 115.83251953 C-47.54472004 109.1216814 -44.61642202 102.41121552 -41.68603516 95.70166016 C-39.24638611 90.11475509 -36.80969385 84.52656617 -34.375 78.9375 C-33.96842163 78.00436981 -33.56184326 77.07123962 -33.14294434 76.10983276 C-27.92747145 64.13170891 -22.76485978 52.13175981 -17.65234375 40.109375 C-17.3869001 39.48529314 -17.12145645 38.86121128 -16.84796906 38.21821785 C-13.97597255 31.46492442 -11.10962336 24.70926519 -8.24951172 17.95092773 C-7.77236221 16.8258783 -7.29521271 15.70082886 -6.80360413 14.54168701 C-5.90347448 12.41930418 -5.00530656 10.296088 -4.10935974 8.17193604 C-3.71273636 7.23758728 -3.31611298 6.30323853 -2.9074707 5.34057617 C-2.56142288 4.52223801 -2.21537506 3.70389984 -1.85884094 2.86076355 C-1 1 -1 1 0 0 Z " fill="#032F5E" transform="translate(524,161)"/>
<path d="M0 0 C0.9169313 -0.00701431 1.83386261 -0.01402863 2.77857971 -0.02125549 C3.78231125 -0.01361176 4.78604279 -0.00596802 5.82019043 0.00190735 C6.87894882 -0.00174332 7.93770721 -0.00539398 9.02854919 -0.00915527 C12.53673218 -0.01727721 16.04445565 -0.00363665 19.5526123 0.01094055 C21.98494466 0.01145896 24.41727744 0.01094201 26.84960938 0.00942993 C31.95070641 0.00951973 37.05164565 0.01996467 42.15270996 0.03804016 C48.70017371 0.06072743 55.24740675 0.06127218 61.79489899 0.05452251 C66.81852275 0.05118529 71.84209365 0.057808 76.8657074 0.06765175 C79.28030623 0.07150828 81.69491094 0.0726501 84.10951233 0.0710659 C87.48063411 0.07069615 90.85145715 0.08329044 94.22253418 0.0995636 C95.22626572 0.09708618 96.22999725 0.09460876 97.2641449 0.09205627 C98.63954185 0.10268349 98.63954185 0.10268349 100.04272461 0.11352539 C100.83986626 0.11557826 101.6370079 0.11763113 102.45830536 0.11974621 C104.5213623 0.3742218 104.5213623 0.3742218 107.5213623 2.3742218 C108.66411303 5.80247399 108.9742161 8.23336914 107.62097168 11.64253235 C104.67604679 17.3428856 101.50914285 22.80289948 98.0213623 28.1867218 C96.95794339 29.84889468 95.89547776 31.51167775 94.8338623 33.17500305 C94.28858887 34.02787903 93.74331543 34.880755 93.18151855 35.75947571 C90.42156662 40.10640001 87.72295169 44.49087783 85.0213623 48.8742218 C79.4532314 57.89133745 73.82278783 66.86691081 68.1439209 75.81465149 C66.33505312 78.66812273 64.53179153 81.5251033 62.72839355 84.3820343 C61.45121747 86.40036957 60.17387655 88.41860055 58.8963623 90.4367218 C58.29187256 91.39570374 57.68738281 92.35468567 57.0645752 93.34272766 C56.50117432 94.23097229 55.93777344 95.11921692 55.3572998 96.03437805 C54.85762695 96.82465393 54.3579541 97.61492981 53.84313965 98.42915344 C52.5213623 100.3742218 52.5213623 100.3742218 50.5213623 102.3742218 C47.0213623 102.6867218 47.0213623 102.6867218 43.5213623 102.3742218 C41.38270463 99.16623529 41.2488518 98.15641163 41.14245605 94.4445343 C41.1082959 93.48418274 41.07413574 92.52383118 41.03894043 91.53437805 C40.99930176 90.03197571 40.99930176 90.03197571 40.9588623 88.4992218 C40.89861349 86.5225478 40.83492492 84.54597504 40.76745605 82.5695343 C40.74352783 81.69313293 40.71959961 80.81673157 40.69494629 79.91377258 C40.51818173 77.32768968 40.0844874 74.9019017 39.5213623 72.3742218 C31.68189625 71.51356443 26.65998857 74.3945351 19.8963623 78.1242218 C18.24918213 79.0067865 18.24918213 79.0067865 16.56872559 79.90718079 C13.20993327 81.71232007 9.86446367 83.54021479 6.5213623 85.3742218 C4.61536464 86.4124456 2.70912877 87.45023225 0.8026123 88.48750305 C-1.90284808 89.96179698 -4.6068685 91.43849679 -7.30725098 92.92207336 C-14.7737972 97.01919096 -22.31651164 100.9583643 -29.87805176 104.87666321 C-36.41604086 108.2738103 -42.89712407 111.76244541 -49.3536377 115.3117218 C-60.37415912 121.36275092 -71.50591743 127.18770671 -82.68762207 132.93476868 C-85.16074902 134.21027222 -87.62554836 135.50017835 -90.0880127 136.7960968 C-108.14219282 146.20247636 -128.1567944 152.71184527 -148.6817627 148.7570343 C-156.32943759 146.03946429 -163.192569 140.39114749 -166.9786377 133.1867218 C-173.61461172 118.59372338 -168.44981826 99.17533393 -163.3536377 84.8117218 C-157.88321743 71.67936735 -149.65300107 53.49046405 -137.4786377 45.3742218 C-138.09998899 48.78142437 -138.94205867 51.97298717 -140.0723877 55.24531555 C-140.38047363 56.1495929 -140.68855957 57.05387024 -141.00598145 57.98554993 C-141.65321707 59.86617233 -142.30165037 61.74638297 -142.95129395 63.62617493 C-146.36955124 73.67356299 -149.17606451 86.21868454 -145.3536377 96.5617218 C-142.35271834 101.06310084 -138.71623314 103.31294543 -133.4786377 104.3742218 C-118.58537677 106.32652192 -104.1962241 96.97322961 -91.4786377 90.3117218 C-89.8247688 89.45354447 -88.1706319 88.59588344 -86.51623535 87.73872375 C-77.05595385 82.82522391 -67.64980951 77.81939699 -58.32043457 72.66108704 C-51.2712946 68.77090057 -44.13587619 65.06117791 -36.9786377 61.3742218 C-25.88299318 55.6533122 -14.87944638 49.78727294 -3.95617676 43.74385071 C-1.50599599 42.38934597 0.94891022 41.04370225 3.4041748 39.69844055 C4.88109296 38.88267787 6.35767665 38.06630924 7.8338623 37.2492218 C8.5044165 36.88272522 9.1749707 36.51622864 9.86584473 36.1386261 C13.28557982 34.37000676 13.28557982 34.37000676 15.5213623 31.3742218 C16.02206551 28.00064846 16.02206551 28.00064846 15.5213623 24.3742218 C11.20221287 19.00516055 5.54987926 16.6855021 -0.59191895 13.9445343 C-2.75799416 12.88974985 -4.6211148 11.91012014 -6.4786377 10.3742218 C-7.6817627 6.7726593 -7.6817627 6.7726593 -7.4786377 3.3742218 C-5.28883815 0.37401124 -3.62702815 -0.00076323 0 0 Z " fill="#F64801" transform="translate(701.4786376953125,280.6257781982422)"/>
<path d="M0 0 C2.91393345 3.47481586 4.63568028 7.33678911 6.421875 11.4609375 C6.75431717 12.21771286 7.08675934 12.97448822 7.42927551 13.75419617 C8.54181875 16.29204048 9.64614357 18.83336638 10.75 21.375 C11.54274444 23.19073624 12.3356355 25.00640847 13.12866211 26.82202148 C22.16323129 47.54732518 30.99771367 68.35899697 39.82644653 89.17259216 C42.9179016 96.45875478 46.02293048 103.73898204 49.13671875 111.015625 C50.30715844 113.75467011 51.47725806 116.49386017 52.64718628 119.23312378 C53.37185944 120.92806526 54.09767549 122.62251865 54.82473755 124.31643677 C55.81870154 126.6327605 56.80826291 128.95091932 57.796875 131.26953125 C58.08016159 131.92644958 58.36344818 132.58336792 58.65531921 133.26019287 C60.70728077 138.09004158 62.39935946 143.00359166 64 148 C56.27120329 148.09335842 48.54254275 148.16409439 40.81332111 148.20724869 C37.22291729 148.22797799 33.63290385 148.25602042 30.04272461 148.30175781 C26.56728053 148.3457481 23.09220794 148.36924676 19.61650658 148.37950897 C17.6686361 148.39031783 15.72091166 148.42145527 13.77326965 148.45318604 C-2.07822707 148.45711063 -15.85166308 143.15964592 -27.375 132.1875 C-43.89936563 114.5597586 -51.17289565 87.15772935 -60.10092163 65.09602356 C-61.7223094 61.09570764 -63.37311095 57.11244397 -65.08496094 53.14990234 C-65.4160788 52.37454636 -65.74719666 51.59919037 -66.08834839 50.80033875 C-66.71610739 49.33389252 -67.35277642 47.8712171 -67.99978638 46.41316223 C-69.11261633 43.79725289 -70.00460048 41.56973357 -69.98144531 38.70214844 C-68.5386516 36.19987039 -66.82034846 35.49179413 -64.2421875 34.22265625 C-63.23575195 33.71589355 -62.22931641 33.20913086 -61.19238281 32.68701172 C-60.09764648 32.15092285 -59.00291016 31.61483398 -57.875 31.0625 C-55.57372503 29.90329779 -53.27428249 28.7404516 -50.9765625 27.57421875 C-49.80770508 26.9817334 -48.63884766 26.38924805 -47.43457031 25.77880859 C-42.29274422 23.11579005 -37.26995986 20.2595165 -32.25 17.375 C-21.64341811 11.30120052 -10.86915158 5.58824838 0 0 Z " fill="#01B6EF" transform="translate(711,380)"/>
<path d="M0 0 C9.9 0 19.8 0 30 0 C34.49961982 10.12414459 34.49961982 10.12414459 36.02026367 14.49243164 C36.36610001 15.47968735 36.71193634 16.46694305 37.06825256 17.4841156 C37.43115891 18.53220901 37.79406525 19.58030243 38.16796875 20.66015625 C38.56056381 21.78361954 38.95315887 22.90708282 39.35765076 24.06459045 C40.63765748 27.72938722 41.91256437 31.39593634 43.1875 35.0625 C44.75092298 39.54634701 46.31771286 44.02901937 47.88411713 48.51182556 C48.56876494 50.47159538 49.25293535 52.43153144 49.93707275 54.39147949 C52.94326607 62.99998242 55.97492599 71.59916189 59.02734375 80.19140625 C59.42001938 81.29700394 59.81269501 82.40260162 60.2172699 83.54170227 C61.71799602 87.76503847 63.21959411 91.98805711 64.72494507 96.20974731 C65.74807675 99.07931309 66.76873065 101.94975025 67.7890625 104.8203125 C68.08711288 105.65321304 68.38516327 106.48611359 68.69224548 107.34425354 C68.96863358 108.12284225 69.24502167 108.90143097 69.52978516 109.70361328 C69.76702301 110.36886017 70.00426086 111.03410706 70.24868774 111.71951294 C71.25831097 114.78406126 72.11359128 117.89756949 73 121 C64.09 121 55.18 121 46 121 C43.36 112.75 40.72 104.5 38 96 C22.49 95.67 6.98 95.34 -9 95 C-9.66 97.97 -10.32 100.94 -11 104 C-11.46518044 105.54432315 -11.95854569 107.08120223 -12.5078125 108.59765625 C-12.7464502 109.26547119 -12.98508789 109.93328613 -13.23095703 110.62133789 C-13.52599121 111.42692139 -13.82102539 112.23250488 -14.125 113.0625 C-15.07375 115.681875 -16.0225 118.30125 -17 121 C-25.25 121 -33.5 121 -42 121 C-39.75016987 110.87576442 -39.75016987 110.87576442 -38.51391602 107.42895508 C-38.23434052 106.64095016 -37.95476501 105.85294525 -37.66671753 105.0410614 C-37.36548981 104.20895645 -37.06426208 103.3768515 -36.75390625 102.51953125 C-36.43076447 101.61278152 -36.10762268 100.7060318 -35.77468872 99.77180481 C-34.70875934 96.78363041 -33.63559451 93.79810794 -32.5625 90.8125 C-31.42275082 87.62339683 -30.28491824 84.43361406 -29.14723206 81.24377441 C-28.34886267 79.00552642 -27.54989124 76.76749308 -26.75035095 74.52966309 C-23.73629798 66.08776096 -20.75514583 57.63464742 -17.7890625 49.17578125 C-17.36139084 47.95661514 -16.93371918 46.73744904 -16.49308777 45.4813385 C-14.81160271 40.68667587 -13.13066882 35.89182416 -11.45291138 31.09585571 C-10.28694248 27.76374505 -9.11830139 24.43258173 -7.94921875 21.1015625 C-7.60819122 20.12427689 -7.2671637 19.14699127 -6.915802 18.14009094 C-6.58998138 17.21294785 -6.26416077 16.28580475 -5.9284668 15.33056641 C-5.65109177 14.53824615 -5.37371674 13.7459259 -5.0879364 12.92959595 C-3.47555152 8.58776475 -1.7201156 4.300289 0 0 Z M14 25 C11.85768495 31.63664174 9.72213162 38.27543116 7.59130859 44.91577148 C6.86533354 47.17538915 6.13780088 49.434507 5.40869141 51.69311523 C4.3621271 54.9360407 3.32114204 58.18071102 2.28125 61.42578125 C1.95314331 62.43836502 1.62503662 63.45094879 1.2869873 64.49421692 C0.98667603 65.43496567 0.68636475 66.37571442 0.37695312 67.3449707 C-0.02275696 68.58740288 -0.02275696 68.58740288 -0.43054199 69.85493469 C-1.12829292 72.11336631 -1.12829292 72.11336631 -1 75 C9.56 75 20.12 75 31 75 C29.65707662 68.28538309 28.24567843 62.17667389 26.03125 55.78125 C25.75027466 54.95669312 25.46929932 54.13213623 25.17980957 53.28259277 C24.59124285 51.56070206 23.99953934 49.83988051 23.40478516 48.12011719 C22.49364565 45.48159878 21.59585156 42.83879124 20.69921875 40.1953125 C20.12318095 38.51535559 19.54638559 36.8356582 18.96875 35.15625 C18.70098755 34.3667395 18.4332251 33.577229 18.15734863 32.76379395 C16.71477675 28.50843474 16.71477675 28.50843474 14 25 Z " fill="#032F5E" transform="translate(424,573)"/>
<path d="M0 0 C7.59 0 15.18 0 23 0 C23 14.19 23 28.38 23 43 C23.66 43 24.32 43 25 43 C25.26554688 42.40316406 25.53109375 41.80632813 25.8046875 41.19140625 C28.74707664 35.79702617 34.09960168 32.38705177 39.84375 30.53125 C49.0792612 28.2558342 58.80366409 28.29852234 67.25 33.125 C75.08807303 38.6454498 79.08832899 44.63832291 81 54 C81.39231034 59.21531371 81.35135713 64.40809382 81.29296875 69.6328125 C81.2873614 71.12067229 81.2830967 72.60853768 81.28010559 74.09640503 C81.26874625 77.97953046 81.23935801 81.86230992 81.20599365 85.74530029 C81.17509854 89.72077761 81.16155906 93.69631178 81.14648438 97.671875 C81.11447785 105.44809135 81.06178507 113.22395278 81 121 C73.41 121 65.82 121 58 121 C57.98541748 119.21907959 57.97083496 117.43815918 57.95581055 115.60327148 C57.90403333 109.69988727 57.83871367 103.79673509 57.76428509 97.89359951 C57.71967697 94.31670347 57.68040047 90.73991882 57.65356445 87.1628418 C57.62743513 83.70668193 57.5869665 80.2509529 57.53681374 76.79506111 C57.5121637 74.84381509 57.50212513 72.89240204 57.49235535 70.94102478 C57.32895635 60.20992571 57.32895635 60.20992571 51.5 51.5625 C45.54229091 48.90280844 39.69406239 49.0693239 33.5625 51.1875 C27.76536023 55.28791593 25.58818083 60.27165073 24 67 C23.55917612 71.30430179 23.51217309 75.58561984 23.48828125 79.91015625 C23.47033005 81.11820419 23.45237885 82.32625214 23.43388367 83.57090759 C23.38002122 87.40140368 23.34596135 91.23177685 23.3125 95.0625 C23.27930579 97.67124097 23.2448142 100.27996577 23.20898438 102.88867188 C23.12430845 109.25900432 23.05585721 115.62935315 23 122 C19.35418313 122.02887512 15.70839537 122.04675585 12.0625 122.0625 C10.50112305 122.07506836 10.50112305 122.07506836 8.90820312 122.08789062 C7.91884766 122.09111328 6.92949219 122.09433594 5.91015625 122.09765625 C4.53549194 122.10551147 4.53549194 122.10551147 3.13305664 122.11352539 C1 122 1 122 0 121 C-0.09591199 119.43112365 -0.12187996 117.85792208 -0.12025452 116.28611755 C-0.12231651 114.7568866 -0.12231651 114.7568866 -0.12442017 113.19676208 C-0.12082489 112.068918 -0.11722961 110.94107391 -0.11352539 109.77905273 C-0.11367142 108.59872467 -0.11381744 107.41839661 -0.1139679 106.20230103 C-0.11338895 102.95657892 -0.10835986 99.71089945 -0.10139394 96.46518588 C-0.09515962 93.07656968 -0.09455654 89.68795272 -0.09336853 86.29933167 C-0.09025544 79.87844196 -0.08204236 73.45756919 -0.07201904 67.03668696 C-0.0608572 59.72846175 -0.05534727 52.42023576 -0.05032361 45.11200416 C-0.03985973 30.07465844 -0.02151453 15.03733473 0 0 Z " fill="#032F5E" transform="translate(570,573)"/>
<path d="M0 0 C7.59 0 15.18 0 23 0 C23 39.93 23 79.86 23 121 C15.41 121 7.82 121 0 121 C0 81.07 0 41.14 0 0 Z " fill="#032F5E" transform="translate(672,573)"/>
<path d="M0 0 C7.26 0 14.52 0 22 0 C22.495 11.88 22.495 11.88 23 24 C27.95 24.33 32.9 24.66 38 25 C38 30.28 38 35.56 38 41 C32.72 41 27.44 41 22 41 C22.09352105 47.90535137 22.19961298 54.81035157 22.31738281 61.71533203 C22.35567666 64.06456199 22.39052879 66.41385066 22.421875 68.76318359 C22.46751627 72.13921094 22.52551299 75.51483391 22.5859375 78.890625 C22.59748871 79.94179504 22.60903992 80.99296509 22.62094116 82.07598877 C22.64081085 83.05670349 22.66068054 84.03741821 22.68115234 85.04785156 C22.69447601 85.90944885 22.70779968 86.77104614 22.7215271 87.65875244 C23.02449963 90.20597949 23.63609449 91.8364182 25 94 C27.56893838 95.28446919 29.76576337 95.32977144 32.625 95.5625 C34.39875 95.706875 36.1725 95.85125 38 96 C38 101.94 38 107.88 38 114 C26.68197764 115.61686034 15.3487837 116.73903926 5 111 C1.63419599 107.71433418 0.09058961 105.04489288 -0.12025452 100.28547668 C-0.11803391 99.19071518 -0.11581329 98.09595367 -0.11352539 96.96801758 C-0.11344986 95.72695755 -0.11337433 94.48589752 -0.11329651 93.20722961 C-0.10818991 91.85299642 -0.10297391 90.49876363 -0.09765625 89.14453125 C-0.09579083 87.75876415 -0.09436751 86.37299639 -0.09336853 84.98722839 C-0.0895531 81.3425209 -0.07973113 77.69785335 -0.06866455 74.05316162 C-0.0584295 70.33297262 -0.05386642 66.61277715 -0.04882812 62.89257812 C-0.03810798 55.59503178 -0.02051907 48.29752658 0 41 C-4.29 41 -8.58 41 -13 41 C-13 35.72 -13 30.44 -13 25 C-8.71 25 -4.42 25 0 25 C0 16.75 0 8.5 0 0 Z " fill="#032F5E" transform="translate(517,581)"/>
<path d="M0 0 C9.26192771 8.30195823 13.87724759 20.12222836 14.84765625 32.32421875 C14.95078125 33.58234375 15.05390625 34.84046875 15.16015625 36.13671875 C14.71996541 49.31493202 10.86322322 61.78968271 1.79296875 71.5078125 C-8.78034797 81.38048775 -20.9186592 83.76811394 -35.0078125 83.53515625 C-46.63746338 83.10334249 -56.50237369 78.93749868 -64.96484375 70.94921875 C-75.29140755 59.77422835 -78.02041865 46.36223544 -77.47265625 31.53125 C-77.14028317 26.17143518 -76.12567508 21.32545524 -74.15234375 16.32421875 C-73.82363281 15.47601562 -73.49492188 14.6278125 -73.15625 13.75390625 C-68.14229658 2.4074511 -59.48797154 -4.16294697 -48.15234375 -8.67578125 C-31.71431916 -14.61412521 -13.42513145 -10.45259781 0 0 Z M-48.15234375 16.32421875 C-53.70484258 25.5409929 -54.53964534 35.68385929 -52.62109375 46.25 C-50.44961288 54.02720594 -47.30444839 59.21556289 -40.15234375 63.32421875 C-33.96678383 65.38607206 -26.61494846 65.42151342 -20.65234375 62.63671875 C-14.17968624 58.77724595 -11.93721572 53.37442895 -10.15234375 46.32421875 C-9.73704437 42.99883597 -9.67399272 39.73521639 -9.71484375 36.38671875 C-9.72314209 35.50935059 -9.73144043 34.63198242 -9.73999023 33.72802734 C-9.93276325 26.34777079 -10.77610705 20.19912479 -15.765625 14.47265625 C-21.1335401 9.44990642 -26.65116614 7.87891397 -33.9140625 8.07421875 C-40.07759914 8.76264169 -44.29407511 11.63172987 -48.15234375 16.32421875 Z " fill="#032F5E" transform="translate(790.15234375,612.67578125)"/>
</svg>
